<svg xmlns="http://www.w3.org/2000/svg" viewBox="0 0 509 512"><path d="M405 245q-66 0-113 47t-47 113q0 9 2 22h-247l427-427-1 247q-12-2-21-2zm79 171l23 17q3 3 1 7l-21 37q-2 4-7 3l-26-11q-8 6-18 10l-4 29q-1 4-6 4h-42q-5 0-6-4l-4-29q-9-3-18-10l-26 11q-5 1-7-3l-21-37q-2-4 1-7l23-17q-1-5-1-10.5t1-10.5l-23-18q-3-3-1-7l21-37q3-3 7-2l26 11q8-6 18-11l4-28q1-4 6-4h42q5 0 6 4l4 28q9 4 18 11l26-11q5-1 7 2l21 37q2 4-1 7l-23 18q1 4 1 10 0 4-1 11zm-79 21q13 0 22.5-9t9.5-22.5-9.5-23-22.5-9.5-22.5 9.5-9.5 23 9.5 22.5 22.5 9z"/></svg>