<svg xmlns="http://www.w3.org/2000/svg" viewBox="0 0 356 512"><path d="M225 172q0-34-52-34h-15q-7 0-13 4.5t-7 11.5l-14 60v3q0 5 3.5 8.5t8.5 3.5h12q15 0 28-3t24.5-9 18-17.5 6.5-27.5zm131 33q0 58-48 93-47 35-133 35h-13q-7 0-13 4.5t-7 11.5l-16 69q-2 7-9 12.5t-15 5.5h-46q-7 0-11.5-4t-4.5-11q0-2 3-14h32q8 0 14.5-5t7.5-12l16-69q2-7 8.5-12t13.5-5h13q85 0 132-35t47-92q0-28-11-44 40 20 40 72zm-40-40q0 57-48 93-47 35-133 35h-13q-7 0-13 4.5t-7 11.5l-16 68q-2 8-8.5 13.5t-15.5 5.5h-46q-7 0-11.5-4t-4.5-11v-4l66-283q1-7 8-12.5t15-5.5h97q14 0 26.5.5t26.5 3 24.5 6.5 21 11 17 16 10.5 22.5 4 29.5z"/></svg>