<svg xmlns="http://www.w3.org/2000/svg" viewBox="0 0 427 512"><path d="M308 406q56-40 69-107-35-8-66-8-17 0-34 3 19 57 31 112zm-95 29q31 0 59-11-12-63-32-121-49 16-87 52-23 22-39 47 44 33 99 33zm-166-166q0 60 39 106 19-28 46-53 42-38 94-55-4-10-10-22-67 21-151 22-13 0-18-1v3zm93-150q-33 16-56 45t-32 64q3 1 13 1h3q70 0 131-19-29-54-59-91zm73-17q-16 0-35 4 32 42 57 91 53-23 82-58-45-37-104-37zm131 64q-36 41-92 66 4 8 11 25 24-4 48-4 33 0 69 8-3-53-36-95zm-130.5-111q88.5 0 151 62.5t62.5 151-62.5 151-151 62.5-151-62.5-62.5-151 62.5-151 151-62.5z"/></svg>