<svg xmlns="http://www.w3.org/2000/svg" viewBox="0 0 267 512"><path d="M147 443q36 0 59-17.5t23-41.5q0-20-12-33.5t-48-39.5h-14q-33 0-59 9-48 17-48 57 0 30 27 48t72 18zm-66-324q0 36 19 66.5t50 30.5q17 0 34.5-12.5t17.5-42.5q0-33-20-66t-52-33q-21 0-35 14.5t-14 42.5zm139 165q22 19 33.5 36t11.5 43q0 43-38.5 74.5t-107.5 31.5q-58 0-88.5-23.5t-30.5-57.5q0-43 42-67 39-24 107-29-17-19-17-36 0-6 7-23h-15q-41 0-65.5-26.5t-24.5-60.5q0-44 31.5-73.5t88.5-29.5h113l-23 22h-32q37 32 37 71 0 19-7.5 34.5t-15.5 23.5-23 20q-18 14-18 29 0 13 15 26z"/></svg>