<svg xmlns="http://www.w3.org/2000/svg" viewBox="0 0 420 512"><path d="M153 172q21 0 35.5 14t14.5 33.5-14.5 33-35.5 13.5-36-13.5-15-33 15-33.5 36-14zm119 0q21 0 35.5 13.5t14.5 33-14.5 33.5-35.5 14-36-14-15-33.5 15-33 36-13.5zm131 74q10-7 15-.5t-1 15.5q-29 36-88 60 26 89-22 131-32 27-64 14-27-10-26-42 0 1-.5-24.5t-.5-53.5l-4-1-7-2v81q1 36-32 44-36 9-65-23-40-43-16-124-60-25-89-60-6-9-1-15.5t14 .5l4 3v-165q0-17 12.5-29t28.5-12h300q16 0 26 12t10 29v165q2 0 6-3zm-27 16v-159q0-22-6.5-30.5t-24.5-8.5h-266q-20 0-26.5 8.5t-6.5 30.5v160q23 14 51 19.5t46 4.5 34 0q15-1 22 6 1 0 1.5 1l.5 1q9 8 15 12 1-22 27-20 16-1 34 0t46-5 53-20z"/></svg>