<svg xmlns="http://www.w3.org/2000/svg" viewBox="0 0 427 512"><path d="M390 287v-62l-46 31zm-158 130l143-96-64-43-79 53v86zm-19-118l65-43-65-43-65 43zm-18 118v-86l-80-53-64 43zm-158-192v62l46-31zm158-130l-144 96 64 43 80-53v-86zm37 0v86l79 53 64-43zm195 94v135q0 1-1 2v1q-1 0-1 1v1l-1 1v1l-.5.5-.5.5q0 1-1 1l-1 1-1 1-1 1-195 130q-5 3-10.5 3t-10.5-3l-195-130h-1v-1l-1-.5-1-.5v-1h-1v-1l-1-1v-1h-1v-1l-1-1v-2q-1-1-1-2v-136q0-1 1-2v-2l1-1v-1l1-1 .5-.5.5-.5v-1q1 0 1-.5v-.5h.5l.5-1h1l1-1 195-130q10-7 21 0l195 130 1 1h1v1q1 0 1 1 1 0 1 .5v.5l1 1v1q1 0 1 1v1l1 1v1q1 1 1 2v1z"/></svg>