<svg xmlns="http://www.w3.org/2000/svg" viewBox="0 0 427 512"><path d="M213.5 235q17.5 0 30 12.5t12.5 30-12.5 30-30 12.5-30-12.5-12.5-30 12.5-30 30-12.5zm127.5 42q0 35-17 64.5t-47 46.5l-21-37q43-25 43-74 0-35-25-60t-60.5-25-60.5 25-25 60q0 49 43 74l-22 37q-29-17-46.5-46.5t-17.5-64.5q0-53 37.5-90.5t90.5-37.5 90.5 37.5 37.5 90.5zm-127.5-213q88.5 0 151 62.5t62.5 150.5q0 59-29 108t-78 77l-21-37q39-23 62-62t23-86q0-70-50-120t-120.5-50-120.5 50-50 120q0 47 23 86t62 62l-22 37q-48-28-77-77t-29-108q0-88 62.5-150.5t151-62.5z"/></svg>