<svg xmlns="http://www.w3.org/2000/svg" viewBox="0 0 512 512"><path d="M0 165l101-37h6v256h-43v-205l-64 22v-36zm507 142q5 8 5 21t-5 23q-6 11-15 18-10 7-24 11-13 4-30 4-20 0-34.5-5t-24.5-14q-9-9-14.5-20t-5.5-22h41q0 8 3 14 4 6 9 9 5 4 12 5 6 2 14 2 16 0 24.5-6t8.5-17q0-4-1-8-2-4-6-7-5-4-12-6-8-3-20-6-16-3-28-8t-20-11q-9-6-14-15t-5-21 5-21q5-11 14-18.5t23-12.5q13-4 29-4 18 0 32 5t23 12q10 8 15 19t5 23h-42q0-4-2-10t-6-9q-5-4-10-6-7-3-14.5-3t-13.5 2-10 5q-3 3-6 8-1 4-1 8.5t1.5 8 5.5 6.5 12 5q8 3 19 5 15 4 28 8 12 5 22 12 9 6 13 16zm-212-157q11 13 16 34 6 21 6 51v41q0 30-6 51-5 21-16 34-11 14-26 19-15 6-34 6-18 0-34-6-15-5-26-19-11-12-17-34-6-20-6-51v-41q0-29 6-51 6-21 16.5-34t26-18.5 34.5-5.5 34 5.5 26 18.5zm-20 132v-54q0-18-2-32-3-13-8-21t-13-11.5-17-3.5q-10 0-18 3-7 4-12.5 12t-8.5 21q-2 13-2 33v53q0 20 2 33 3 13 9 21 5 9 12.5 12.5t17.5 3.5 17.5-3.5 12.5-12 7.5-22 2.5-32.5z"/></svg>