<svg xmlns="http://www.w3.org/2000/svg" viewBox="0 0 469 512"><path d="M43 107v341h341v43h-341q-18 0-30.5-12.5t-12.5-30.5v-341h43zm234 149q0 18-12.5 30.5t-29.5 12.5h-64v-43h64v-21h-22q-17 0-29.5-12.5t-12.5-30.5v-21q0-18 12.5-30.5t29.5-12.5h22q17 0 29.5 12.5t12.5 30.5v85zm-64-64h22v-21h-22v21zm214-171q17 0 29.5 12.5t12.5 30.5v299q0 17-12.5 29.5t-29.5 12.5h-299q-18 0-30.5-12.5t-12.5-29.5v-299q0-18 12.5-30.5t30.5-12.5h299zm0 171v-128h-299v299h299v-128h-43v42h-43v-42h-42v-43h42v-43h43v43h43z"/></svg>