<svg xmlns="http://www.w3.org/2000/svg" viewBox="0 0 384 512"><path d="M298.5 107q-13.5 0-22.5-9.5t-9-22.5q0-10 8-24.5t16-23.5l8-10q32 36 32 58 0 13-9.5 22.5t-23 9.5zm-106.5 0q-13 0-22.5-9.5t-9.5-22.5q0-10 8-24.5t16-23.5l8-10q32 36 32 58 0 13-9.5 22.5t-22.5 9.5zm-106.5 0q-13.5 0-23-9.5t-9.5-22.5q0-10 8-24.5t16-23.5l8-10q32 36 32 58 0 13-9 22.5t-22.5 9.5zm254.5 64l44 128v170q0 9-6.5 15.5t-14.5 6.5h-22q-8 0-14.5-6.5t-6.5-15.5v-21h-256v21q0 9-6.5 15.5t-14.5 6.5h-22q-8 0-14.5-6.5t-6.5-15.5v-170l44-128q8-22 31-22h234q23 0 31 22zm-265.5 213q13.5 0 23-9.5t9.5-22.5-9.5-22.5-23-9.5-22.5 9.5-9 22.5 9 22.5 22.5 9.5zm235 0q13.5 0 22.5-9.5t9-22.5-9-22.5-22.5-9.5-23 9.5-9.5 22.5 9.5 22.5 23 9.5zm-266.5-107h298l-32-96h-234z"/></svg>