<svg xmlns="http://www.w3.org/2000/svg" viewBox="0 0 549 512"><path d="M548 149q7 18-43 84-7 9-18 24-23 28-26 37-5 12 4 23 5 6 23 24h1v1q41 37 55 63l2 4 2 7.5v9.5l-7 7.5-17 3.5-73 2q-7 1-16.5-2t-14.5-6l-6-4q-9-6-20-18t-19.5-22-17.5-16.5-16-4.5q-1 0-2.5 1t-5 4.5-6 8.5-4.5 14.5-2 22.5q0 4-1 7.5t-2 5.5l-1 1q-6 6-16 6h-32q-21 2-42.5-4t-37.5-15.5-29-19-20-16.5l-7-7q-3-2-8-8t-20.5-26-30.5-43-35-60.5-37-77.5q-2-5-2-8t1-5l1-1q4-6 16-6h79q3 0 6 1.5l5 2.5 1 1q5 3 7 9 6 14 13.5 29.5t11.5 23.5l4 8q9 17 16.5 29.5t13.5 19.5 12 11 10 4 8-1l1-1.5 3.5-6.5 4-13 2.5-23v-36q-1-11-3-20.5t-4-13.5l-1-3q-7-10-25-13-3 0 2-7 5-5 11-8 15-8 68-7 23 0 39 4 5 1 9 3.5t6 7 3 9 1 13v15.5q-1 8-1 20v24q0 3-.5 12t-.5 14 1 11.5 3.5 11 6.5 6.5q2 1 4.5 1.5t7.5-3 11-10 15-19.5 19-30q17-30 31-65 1-2 2.5-4.5t3.5-3.5h1l1-1 4-1h6l82-1q11-1 18.5 1t8.5 5z"/></svg>