<svg xmlns="http://www.w3.org/2000/svg" viewBox="0 0 384 512"><path d="M192 469q0-79 56-135.5t136-56.5q0 80-56 136t-136 56zm-137-250q0-34 31-48-31-15-31-48 0-22 16-38t38-16q17 0 30 10v-4q0-22 15.5-38t37.5-16 37.5 16 15.5 38v4q14-10 30-10 22 0 38 16t16 38q0 33-31 48 31 14 31 48 0 22-16 37.5t-38 15.5q-17 0-30-9v4q0 22-15.5 37.5t-37.5 15.5-37.5-15.5-15.5-37.5v-4q-14 9-30 9-22 0-38-15.5t-16-37.5zm137-102q-22 0-37.5 16t-15.5 38 15.5 37.5 37.5 15.5 37.5-15.5 15.5-37.5-15.5-38-37.5-16zm-192 160q80 0 136 56.5t56 135.5q-80 0-136-56t-56-136z"/></svg>