<svg xmlns="http://www.w3.org/2000/svg" viewBox="0 0 352 512"><path d="M170 224q18 0 57.5 1t59.5 2q15 0 26 3 28 6 34 40 5 35 5 59 0 39-3 87-1 12-7 25-11 24-43 25-103 3-152 3-17 0-47.5-1t-40.5-1-22-4q-20-5-29-26-6-17-8-52-1-41 2-94 1-15 5-31 9-31 42-33 31 0 121-3zm32 191q4 3 13 9 9 5 17.5 1t10.5-15q2-9 2-14v-60q0-8-3-15-3-13-12-16.5t-20 4.5q-2 1-4.5 3.5l-3.5 3.5v-50h-21v158h21q-1-4 0-9zm-40 9v-118h-22v83q0 8-6 12-4 5-9 3-3-1-3-7v-91h-22v99q0 3 1 9 4 16 20 11 4-1 13-7 2-1 6-6v12h22zm161-55q0-4 .5-11t.5-12.5-1-10.5q-1-14-9-22t-21-9q-14-1-23.5 6.5t-10.5 21.5q-3 33 0 67 2 15 14 22.5t28 3.5q13-3 19.5-15.5t2.5-26.5h-22q0 10-1 14-1 9-9 9t-9-8q-1-9-2-30 16 1 43 1zm-220-80v-23h-74v23h24v135h25v-135h25zm144-205v93q0 6 4 7 3 1 7-2 7-5 7-14v-84h22v119h-22v-12l-5 5q-8 6-11 7-8 4-14.5.5t-8.5-11.5q-1-4-1-7v-100q7-1 22-1zm-181-41h22q2 0 4 4 10 34 14 51 0 1 2 3 4-18 9-32 1-3 3-10.5t3-11.5q1-3 4-4h22q0 1-1 4-1 1-1 2-4 14-13 42t-13 42q-2 6-2 10v59h-23q0-3-.5-8.5t-.5-9.5 1-8q2-36-13-78-9-27-17-55zm142 101v11l-.5 13-1.5 11q-1 11-10 18.5t-21 7.5-20-7.5-11-18.5q-1-7-1-21 0-38 1-49 4-27 31-27 26 0 31 27 0 1 .5 2.5t.5 2.5q0 5 .5 15t.5 15zm-41-1v28q0 6 1 8 4 5 8 5t8-5q1-2 1-8v-61q-1-7-9-7-7 0-9 7-1 2-1 6t.5 13 .5 14zm39 222v-31q0-9 11-9 8 0 8 7v67q-1 7-8 7-11-1-11-9-1-16 0-32zm93-14h-20q0-4 .5-10.5t.5-10.5q1-6 9-6 7 0 8 6 2 10 2 21z"/></svg>