<svg xmlns="http://www.w3.org/2000/svg" viewBox="0 0 427 512"><path d="M43 43h341q18 0 30.5 12.5t12.5 29.5v342q0 17-12.5 29.5t-30.5 12.5h-110q-7-1-7-21v-58q0-27-15-40 44-5 70.5-27t26.5-78q0-33-22-57 11-26-2-57-18-6-58 22-26-7-54-7t-53 7q-18-12-32.5-17.5t-20.5-4.5h-6q-12 31-2 57-22 24-22 57 0 55 27 77.5t70 27.5q-11 10-13 29-42 18-62-18-12-20-33-22-2 0-4.5.5t-5.5 3.5 8 9q15 7 24 31 1 2 2 4.5t6.5 9.5 13 10.5 20.5 6.5 30-2v36q0 20-8 21h-109q-18 0-30.5-12.5t-12.5-29.5v-342q0-17 12.5-29.5t30.5-12.5z"/></svg>