<svg xmlns="http://www.w3.org/2000/svg" viewBox="0 0 256 512"><path d="M128 259q-45 0-76.5-32t-31.5-76.5 31.5-76 76.5-31.5 76.5 31.5 31.5 76-31.5 76.5-76.5 32zm0-161q-22 0-37.5 15.5t-15.5 37.5 15.5 37.5 37.5 15.5 37.5-15.5 15.5-37.5-15.5-37.5-37.5-15.5zm124 174q8 15 1 24.5t-29 24.5q-27 17-75 22l81 81q7 7 7 17.5t-7 17.5l-3 3q-8 7-18 7t-17-7q-12-11-64-64l-63 64q-7 7-17.5 7t-17.5-7l-3-3q-7-7-7-17.5t7-17.5l63-63 18-18q-48-4-76-22-22-15-29-24.5t1-24.5q5-11 16-13.5t29 8.5q14 11 33.5 17t32.5 6l13 1q49 0 79-24 18-11 29-8.5t16 13.5z"/></svg>