<svg xmlns="http://www.w3.org/2000/svg" viewBox="0 0 361 512"><path d="M158 277q5 7 8 16 2 9 2 18 0 18-6.5 32t-17.5 23q-12 10-27 15-16 5-34 5-16 0-31-4.5t-27-13.5-18-23q-7-13-7-31h42q0 9 3 16t8.5 12 13.5 7q7 3 17 3 20 0 31-10 11-11 11-31 0-10-3-18t-10-13q-5-5-14-8-9-2-20-2h-25v-33h25q11 0 19-3t13-8q6-5 8.5-12t2.5-16q0-18-9-28-10-10-29-10-9 0-16 2.5t-12 6.5q-5 5-8 11.5t-3 14.5h-43q0-15 7-27 5-12 16-22t26-15q14-5 32-5t32.5 4 25.5 13.5 17 22.5q6 14 6 32 0 8-2 15t-8 15q-4 7-12 14-6 6-17 11 12 4 20 10t13 14zm198 30q4 8 5 21 0 13-5 23-6 11-16 18-9 7-23 11t-31 4q-19 0-33.5-5t-24.5-14-15-20-5-22h40q0 8 4 14t9 9q5 4 12 5 6 2 13 2 17 0 25.5-6t8.5-17q0-4-2-8-1-4-5-7-5-4-13-6-8-3-20-6-15-3-27-8-13-5-21-11-9-7-14-15-4-10-4-21 0-12 4-21 6-11 15-18.5t22-12.5q13-4 30-4 18 0 31 5 14 5 23 12 10 8 15 19t5 23h-41q0-4-2-10-3-6-7-9-4-4-10-6-6-3-14-3t-13.5 2-9.5 5-6 8q-2 4-2 8.5t1.5 8 6 6.5 11.5 5q9 3 19 5 15 4 29 8 12 5 21 12 9 6 14 16z"/></svg>