<svg xmlns="http://www.w3.org/2000/svg" viewBox="0 0 427 512"><path d="M372 175q0 26-18 44.5t-44 18.5-44.5-18.5-18.5-44.5 18.5-44.5 44.5-18.5 44 18.5 18 44.5zm-372 200v-110l65 26q20-12 45-12h9l73-105q0-48 34.5-82t82.5-34q49 0 83.5 34.5t34.5 83-34.5 83-83.5 34.5l-112 82q-3 34-28 56.5t-59 22.5q-32 0-56-19.5t-30-49.5zm309.5-279q-32.5 0-55.5 23.5t-23 56 23 55.5 55.5 23 55.5-23 23-55.5-23-56-55.5-23.5zm-199.5 206q-7 0-14 2l27 10q19 8 27.5 27.5t.5 39.5-27.5 28-39.5 1q-6-3-16.5-7.5t-14.5-5.5q18 34 57 34 26 0 45-19t19-45.5-19-45.5-45-19z"/></svg>