<svg xmlns="http://www.w3.org/2000/svg" viewBox="0 0 405 512"><path d="M74.5 277q8.5 0 15 6.5t6.5 15-6.5 15-15 6.5-15-6.5-6.5-15 6.5-15 15-6.5zm0 86q8.5 0 15 6t6.5 15-6.5 15-15 6-15-6-6.5-15 6.5-15 15-6zm0-171q8.5 0 15 6.5t6.5 15-6.5 15-15 6.5-15-6.5-6.5-15 6.5-15 15-6.5zm-64 11q10.5 0 10.5 10.5t-10.5 10.5-10.5-10.5 10.5-10.5zm64-96q8.5 0 15 6t6.5 15-6.5 15-15 6-15-6-6.5-15 6.5-15 15-6zm320 117q-10.5 0-10.5-10.5t10.5-10.5 10.5 10.5-10.5 10.5zm-149-75q-8.5 0-15-6t-6.5-15 6.5-15 15-6 15 6 6.5 15-6.5 15-15 6zm0-74q-10.5 0-10.5-11t10.5-11 10.5 11-10.5 11zm-235 213q10.5 0 10.5 10.5t-10.5 10.5-10.5-10.5 10.5-10.5zm149.5 149q11 0 11 11t-11 11-11-11 11-11zm0-362q-11 0-11-11t11-11 11 11-11 11zm0 74q-9 0-15-6t-6-15 6-15 15-6 15 6 6 15-6 15-15 6zm0 118q13 0 22.5 9t9.5 22.5-9.5 23-22.5 9.5-22.5-9.5-9.5-23 9.5-22.5 22.5-9zm170.5 10q8.5 0 15 6.5t6.5 15-6.5 15-15 6.5-15-6.5-6.5-15 6.5-15 15-6.5zm0 86q8.5 0 15 6t6.5 15-6.5 15-15 6-15-6-6.5-15 6.5-15 15-6zm0-171q8.5 0 15 6.5t6.5 15-6.5 15-15 6.5-15-6.5-6.5-15 6.5-15 15-6.5zm0-85q8.5 0 15 6t6.5 15-6.5 15-15 6-15-6-6.5-15 6.5-15 15-6zm64 181q10.5 0 10.5 10.5t-10.5 10.5-10.5-10.5 10.5-10.5zm-149 75q8.5 0 15 6t6.5 15-6.5 15-15 6-15-6-6.5-15 6.5-15 15-6zm0 74q10.5 0 10.5 11t-10.5 11-10.5-11 10.5-11zm-85.5-256q13 0 22.5 9.5t9.5 23-9.5 22.5-22.5 9-22.5-9-9.5-22.5 9.5-23 22.5-9.5zm0 182q9 0 15 6t6 15-6 15-15 6-15-6-6-15 6-15 15-6zm85.5-96q13.5 0 22.5 9t9 22.5-9 23-22.5 9.5-23-9.5-9.5-23 9.5-22.5 23-9zm0-86q13.5 0 22.5 9.5t9 23-9 22.5-22.5 9-23-9-9.5-22.5 9.5-23 23-9.5z"/></svg>