<svg xmlns="http://www.w3.org/2000/svg" viewBox="0 0 427 512"><path d="M235 346q53 0 82-35t29-82q0-52-39-89.5t-93.5-37.5-93.5 37.5-39 89.5q0 34 18 63 6 11 18 11 9 0 15.5-6.5t6.5-14.5q0-5-4-11-11-20-11-42 0-35 26-59.5t63-24.5 63.5 24.5 26.5 59.5q0 30-16.5 51.5t-51.5 21.5q-12 0-20-8.5t-8-20.5q0-9 9.5-28.5t9.5-35.5q0-28-31-28-14 0-24.5 11.5t-10.5 36.5q0 8 1 16t2 12l1 3-39 119-1 4v3q0 10 6.5 17t16.5 7q14 0 20-12l1 1 1-4 20-69q19 20 46 20zm149-303q18 0 30.5 12.5t12.5 29.5v342q0 17-12.5 29.5t-30.5 12.5h-341q-18 0-30.5-12.5t-12.5-29.5v-342q0-17 12.5-29.5t30.5-12.5h341z"/></svg>