<svg xmlns="http://www.w3.org/2000/svg" viewBox="0 0 469 512"><path d="M85 43v85h43v128h-128v-128h43v-85q0-9 6-15.5t15-6.5 15 6.5 6 15.5zm86 298v-42h128v42q0 21-12 37.5t-31 22.5v90h-43v-90q-19-6-30.5-22.5t-11.5-37.5zm-171 0v-42h128v42q0 21-12 37.5t-31 22.5v90h-42v-90q-19-6-31-22.5t-12-37.5zm427-213h42v128h-128v-128h43v-85q0-9 6.5-15.5t15-6.5 15 6.5 6.5 15.5v85zm-171-85v85h43v128h-128v-128h42v-85q0-9 6.5-15.5t15-6.5 15 6.5 6.5 15.5zm85 298v-42h128v42q0 21-11.5 37.5t-30.5 22.5v90h-43v-90q-19-6-31-22.5t-12-37.5z"/></svg>