<svg xmlns="http://www.w3.org/2000/svg" viewBox="0 0 384 512"><path d="M192 213q18 0 30.5 12.5t12.5 30.5-12.5 30.5-30.5 12.5-30.5-12.5-12.5-30.5 12.5-30.5 30.5-12.5zm149-149q18 0 30.5 12.5t12.5 30.5v298q0 18-12.5 30.5t-30.5 12.5h-298q-18 0-30.5-12.5t-12.5-30.5v-298q0-18 12.5-30.5t30.5-12.5h298zm-37 192q0-7-1-15l32-24q4-5 1-10l-30-52q-3-5-9-3l-37 15q-12-9-25-15l-6-39q-1-6-7-6h-60q-6 0-7 6l-6 40q-14 5-25 14l-37-15q-6-2-9 4l-30 51q-3 6 1 10l32 24q-1 8-1 15t1 15l-32 24q-4 5-1 10l30 52q3 5 9 3l37-15q12 9 25 15l6 39q1 6 7 6h60q6 0 7-6l6-40q14-5 25-14l37 15q6 2 9-4l30-51q3-6-1-10l-32-24q1-8 1-15z"/></svg>