<svg xmlns="http://www.w3.org/2000/svg" viewBox="0 0 427 512"><path d="M85 384v-213h256v213q0 9-6 15t-15 6h-21v75q0 13-9.5 22.5t-23 9.5-22.5-9.5-9-22.5v-75h-43v75q0 13-9.5 22.5t-22.5 9.5-22.5-9.5-9.5-22.5v-75h-21q-9 0-15.5-6t-6.5-15zm-53-213q13 0 22.5 9t9.5 23v149q0 13-9.5 22.5t-22.5 9.5-22.5-9.5-9.5-22.5v-149q0-14 9.5-23t22.5-9zm362.5 0q13.5 0 23 9t9.5 23v149q0 13-9.5 22.5t-23 9.5-22.5-9.5-9-22.5v-149q0-14 9-23t22.5-9zm-105.5-125q52 38 52 103h-256q0-64 53-103l-28-28q-8-7-.5-14.5t15.5-.5l32 32q26-14 56-14t57 14l31-32q8-7 15.5.5t-.5 14.5zm-118 61v-22h-22v22h22zm106 0v-22h-21v22h21z"/></svg>