<svg xmlns="http://www.w3.org/2000/svg" viewBox="0 0 405 512"><path d="M245.5 149q-8.5 0-15-6t-6.5-15 6.5-15 15-6 15 6 6.5 15-6.5 15-15 6zm-4.5 96q-11-2-18.5-9.5t-8.5-17.5l-1-5q0-13 9.5-22.5t23-9.5 22.5 9.5 9 23-9 22.5-23 9h-4zm4.5-170q-10.5 0-10.5-11t10.5-11 10.5 11-10.5 11zm-85.5 0q-11 0-11-11t11-11 11 11-11 11zm234.5 149q-10.5 0-10.5-10.5t10.5-10.5 10.5 10.5-10.5 10.5zm-234.5-75q-9 0-15-6t-6-15 6-15 15-6 15 6 6 15-6 15-15 6zm170.5 171q-8.5 0-15-6.5t-6.5-15 6.5-15 15-6.5 15 6.5 6.5 15-6.5 15-15 6.5zm0-85q-8.5 0-15-6.5t-6.5-15 6.5-15 15-6.5 15 6.5 6.5 15-6.5 15-15 6.5zm0-86q-8.5 0-15-6t-6.5-15 6.5-15 15-6 15 6 6.5 15-6.5 15-15 6zm-85 288q10.5 0 10.5 11t-10.5 11-10.5-11 10.5-11zm-245.5-325l27-27 346 347-27 27-81-81q2 4 2 6 0 9-6.5 15t-15 6-15-6-6.5-15 6.5-15 14.5-6q2 0 6 1l-60-60q-1 11-10 19t-21 8q-13 0-22.5-9.5t-9.5-22.5q0-12 7.5-21t19.5-11l-60-60q1 4 1 6 0 9-6.5 15.5t-15 6.5-15-6.5-6.5-15 6.5-15 15.5-6.5l6 1zm160 251q9 0 15 6t6 15-6 15-15 6-15-6-6-15 6-15 15-6zm234.5-75q10.5 0 10.5 10.5t-10.5 10.5-10.5-10.5 10.5-10.5zm-320-11q8.5 0 15 6.5t6.5 15-6.5 15-15 6.5-15-6.5-6.5-15 6.5-15 15-6.5zm-64-74q10.5 0 10.5 10.5t-10.5 10.5-10.5-10.5 10.5-10.5zm149.5 234q11 0 11 11t-11 11-11-11 11-11zm-85.5-74q8.5 0 15 6t6.5 15-6.5 15-15 6-15-6-6.5-15 6.5-15 15-6zm-64-75q10.5 0 10.5 10.5t-10.5 10.5-10.5-10.5 10.5-10.5z"/></svg>