<svg xmlns="http://www.w3.org/2000/svg" viewBox="0 0 387 512"><path d="M37 147l-37-36q5-6 19-20 26-27 58-27 18 0 35.5 15t17.5 46q0 20-6 34t-21 36q-29 43-40 75-5 18-2.5 29.5t10.5 11.5q9 0 24-18 16-17 48-58 18-22 46-41t60-19q42 0 62.5 27.5t23.5 61.5h52v53h-52q-6 69-36.5 100t-63.5 31q-28 0-48.5-19.5t-20.5-46.5q0-33 30-69.5t85-45.5v-3q-1-8-2.5-12.5t-5-10.5-11-9-18.5-3q-18 0-39 20t-48 53q-16 19-23.5 28t-19.5 18.5-23 12.5q-30 10-56-9-29-22-29-64 0-14 6-32.5t15-35.5 16.5-30 15.5-24.5 8-12.5q18-28 7-32-8-3-37 26zm199 249q14 0 27.5-18t17.5-57q-30 8-45.5 27t-15.5 32q0 7 5 11.5t11 4.5z"/></svg>