<svg xmlns="http://www.w3.org/2000/svg" viewBox="0 0 448 512"><path d="M341 21q44 0 75.5 31.5t31.5 75.5q0 22-26.5 67.5t-52 92.5-22.5 75q0 5-5.5 5t-5.5-5q2-28-23-75t-51.5-92.5-26.5-67.5q0-44 31-75.5t75-31.5zm.5 64q-17.5 0-30 12.5t-12.5 30.5 12.5 30.5 30 12.5 30-12.5 12.5-30.5-12.5-30.5-30-12.5zm-298.5-21h185q-20 32-20 69 0 26 32 83l-239 239-1-7v-341q0-18 12.5-30.5t30.5-12.5zm267 275l-51-51 14-15q24 39 37 66zm61 152h-315l157-158zm56-248v205l-1 7-72-72q3-9 7-18.5t9-20 9.5-19 12-21.5 11-19.5 12.5-21.5zm-327 24q-17 0-27-7t-10-19q0-14 18-21 10-3 22-3h5q13 10 18 15t5 12q0 9-9 16t-22 7zm-25-122q0-10 5.5-15.5t12.5-5.5q13 0 20.5 12t7.5 25q0 11-6.5 15.5t-13.5 4.5q-11 0-18.5-11.5t-7.5-24.5zm52 62l-7-6q-6-5-6-9 0-7 7-12 17-13 17-29 0-14-14-26h12l9-9h-43q-21 0-32.5 11.5t-11.5 27.5q0 13 9 23t25 10h5l-2 8q0 7 6 14-24 1-40 11-16 9-16 25 0 13 11.5 21.5t33.5 8.5q25 0 39.5-12t14.5-27q0-16-17-30z"/></svg>