<svg xmlns="http://www.w3.org/2000/svg" viewBox="0 0 414 512"><path d="M350 265q30 17 47 47t17 63q-29 17-63 17.5t-65-17.5q-9-5-17-11 2 10 2 20 0 35-17.5 64.5t-46.5 46.5q-29-17-46.5-46.5t-17.5-64.5q0-10 2-20-9 7-17 11-31 17-65 17t-63-17q0-34 17-63.5t47-47.5q8-4 18-8-10-4-18-9-30-17-47-47t-17-63q29-17 63-17.5t65 17.5q8 4 17 11-2-10-2-20 0-35 17.5-64.5t46.5-46.5q29 17 46.5 46.5t17.5 64.5q0 10-2 20 9-7 17-11 31-18 65-17.5t63 17.5q0 33-17 63t-47 47q-8 5-18 9 10 4 18 9zm-143 76q35 0 60-25t25-60-25-60-60-25-60 25-25 60 25 60 60 25z"/></svg>