<svg xmlns="http://www.w3.org/2000/svg" viewBox="0 0 384 512"><path d="M0 107q0-18 12.5-30.5t30.5-12.5v43h-43zm0 170v-42h43v42h-43zm85 171v-43h43v43h-43zm-85-256v-43h43v43h-43zm213-128v43h-42v-43h42zm128 0q18 0 30.5 12.5t12.5 30.5h-43v-43zm-298 384q-18 0-30.5-12.5t-12.5-30.5h43v43zm-43-85v-43h43v43h-43zm128-299v43h-43v-43h43zm43 384v-43h42v43h-42zm170-171v-42h43v42h-43zm0 171v-43h43q0 18-12.5 30.5t-30.5 12.5zm0-256v-43h43v43h-43zm0 171v-43h43v43h-43zm-85 85v-43h43v43h-43zm0-341v-43h43v43h-43zm-171 256v-214h214v214h-214zm43-171v128h128v-128h-128z"/></svg>