<svg xmlns="http://www.w3.org/2000/svg" viewBox="0 0 427 512"><path d="M427 116v112q0 39-10 69-18 60-68 102-53 44-121 48-70 5-129-32-54-35-80-93-15-33-18-66-1-18-1-75v-75q0-14 7.5-25t20.5-15q8-2 16-2h169q25 0 75.5.5t75.5.5q27 0 35 2 14 4 22 17 6 9 6 32zm-85 97q5-15-6-27-10-13-27-10-5 0-9.5 3t-7 5-8 7.5l-6.5 6.5q-56 55-64 62-2-1-56-53-7-7-15-14-11-11-14-13-13-9-27-2-15 6-17.5 21.5t8.5 26.5q1 0 58 56l28 26q1 2 5.5 6.5t7 6.5 7 5 8.5 4q15 3 27-8 4-4 9-8.5t11-10.5l9-9q52-50 58-55l5.5-5.5 6.5-6.5 5-6 4-8z"/></svg>