<svg xmlns="http://www.w3.org/2000/svg" viewBox="0 0 512 512"><path d="M330.5 117q-17.5 0-30-12.5t-12.5-30 12.5-30 30-12.5 30 12.5 12.5 30-12.5 30-30 12.5zm-224 139q44.5 0 75.5 31t31 75.5-31 75.5-75.5 31-75.5-31-31-75.5 31-75.5 75.5-31zm0 181q30.5 0 52.5-22t22-52.5-22-52.5-52.5-22-52.5 22-22 52.5 22 52.5 52.5 22zm123.5-213l47 49v132h-42v-106l-69-60q-12-10-12-30 0-17 12-30l60-60q10-12 30-12 18 0 34 12l41 41q32 32 76 32v43q-64 0-108-45l-17-17zm175.5 32q44.5 0 75.5 31t31 75.5-31 75.5-75.5 31-75.5-31-31-75.5 31-75.5 75.5-31zm0 181q30.5 0 52.5-22t22-52.5-22-52.5-52.5-22-52.5 22-22 52.5 22 52.5 52.5 22z"/></svg>