<svg xmlns="http://www.w3.org/2000/svg" viewBox="0 0 469 512"><path d="M105 213q-5-4-7-8-11-22-11-47t13-47q8-18 30-36 19-14 49-24 26-8 62-8 40 0 66 10 25 6 49 26 20 16 30 40 11 25 11 52h-86q0-11-4-24-3-13-13-19-10-10-21-13-17-4-30-4t-30 4q-8 2-21 11-10 7-13 15-4 13-4 19 0 22 21 34 14 9 43 19h-134zm364 43v43h-91q1 1 1.5 2t1 3 1.5 3q8 20 8 47 0 24-10 49-8 18-30 36-21 18-47 24-26 8-62 8-15 0-40-4-13-2-39-10-13-7-34-20-14-8-28-25-13-17-19-34-6-20-6-45h85q0 21 6 34 5 8 17 21 10 10 26 13 21 4 34 4t30-4q3-2 10-5t9-6q10-6 13-15 4-12 4-19 0-13-2-19-3-11-13-17-17-12-25-15-2-1-7.5-3t-7.5-3h-254v-43h469z"/></svg>