<svg xmlns="http://www.w3.org/2000/svg" viewBox="0 0 469 512"><path d="M448 85q9 0 15 6.5t6 15.5v85q0 9-6 15t-15 6h-107q-8 0-14.5-6t-6.5-15v-85q0-9 6.5-15.5t14.5-6.5v-10q0-22 16-38t38-16 37.5 16 15.5 38v10zm-17 0v-10q0-15-10.5-26t-25.5-11-26 11-11 26v10h73zm-49 171h44q1 12 1 21 0 89-62.5 151.5t-151 62.5-151-62.5-62.5-151 62.5-151 150.5-62.5q33 0 64 10v54q0 18-12.5 30.5t-29.5 12.5h-43v42q0 9-6.5 15.5t-14.5 6.5h-43v42h128q9 0 15 6.5t6 15.5v64h22q14 0 25 8t15 21q45-49 45-115 0-7-2-21zm-190 191v-42q-18 0-30.5-12.5t-12.5-29.5v-22l-102-102q-4 20-4 38 0 65 42.5 113.5t106.5 56.5z"/></svg>