<svg xmlns="http://www.w3.org/2000/svg" viewBox="0 0 427 512"><path d="M414 301q13 25 13 52 0 48-34.5 82t-83.5 34q-30 0-56-13-19 3-37 3-85 0-144.5-59t-59.5-142q0-20 4-40-16-27-16-59 0-48 34.5-82t83.5-34q34 0 63 18 17-3 35-3 84 0 143.5 58.5t59.5 141.5q0 22-5 43zm-95.5 52.5q14.5-19.5 14.5-44.5 0-21-8.5-35.5t-23.5-23.5q-14-10-34-16-21-6-45-12-20-4-29-7-8-2-16-6t-12-9-4-12q0-11 12-19 14-8 36-8 23 0 34 7 10 8 18 23 6 11 12 16t18 5 20.5-8.5 8.5-19.5-6.5-22.5-20-22-33.5-17-47-6.5q-35 0-60 10-26 9-39.5 27t-13.5 40q0 24 13 41 13 16 35 25 21 9 53 16 23 4 37 9 14 4 22 11 8 8 8 20 0 14-15 25-16 10-41 10-18 0-29.5-5t-17.5-13-11-21q-5-11-12-17-8-6-18-6-13 0-21.5 8t-8.5 19q0 18 13 36t34 29q28 15 72 15 37 0 64-11t41.5-30.5z"/></svg>