<svg xmlns="http://www.w3.org/2000/svg" viewBox="0 0 469 512"><path d="M331 277q25 0 56 7.5t56.5 24 25.5 38.5v58h-469v-58q0-22 25.5-38.5t56.5-24 57-7.5q50 0 96 22 46-22 96-22zm-86 96v-26q0-10-35-24t-71.5-14-71.5 14-35 24v26h213zm192 0v-26q0-10-35-24t-71-14q-32 0-65 12 11 12 11 26v26h160zm-298-117q-31 0-53-22t-22-53 22-52.5 53-21.5 52.5 21.5 21.5 52.5-21.5 53-52.5 22zm-.5-117q-17.5 0-30 12.5t-12.5 30 12.5 30 30 12.5 30-12.5 12.5-30-12.5-30-30-12.5zm192.5 117q-31 0-53-22t-22-53 22-52.5 53-21.5 52.5 21.5 21.5 52.5-21.5 53-52.5 22zm-.5-117q-17.5 0-30 12.5t-12.5 30 12.5 30 30 12.5 30-12.5 12.5-30-12.5-30-30-12.5z"/></svg>