<svg xmlns="http://www.w3.org/2000/svg" viewBox="0 0 427 512"><path d="M170.5 192q8.5 0 15 6.5t6.5 15-6.5 15-15 6.5-15-6.5-6.5-15 6.5-15 15-6.5zm0 85q8.5 0 15 6.5t6.5 15-6.5 15-15 6.5-15-6.5-6.5-15 6.5-15 15-6.5zm-64-74q10.5 0 10.5 10.5t-10.5 10.5-10.5-10.5 10.5-10.5zm64 149q10.5 0 10.5 10.5t-10.5 10.5-10.5-10.5 10.5-10.5zm-64-64q10.5 0 10.5 10.5t-10.5 10.5-10.5-10.5 10.5-10.5zm64-128q-10.5 0-10.5-10.5t10.5-10.5 10.5 10.5-10.5 10.5zm85.5 32q9 0 15 6.5t6 15-6 15-15 6.5-15-6.5-6-15 6-15 15-6.5zm0-32q-11 0-11-10.5t11-10.5 11 10.5-11 10.5zm64 128q11 0 11 10.5t-11 10.5-11-10.5 11-10.5zm0-85q11 0 11 10.5t-11 10.5-11-10.5 11-10.5zm-106.5-160q88.5 0 151 62.5t62.5 150.5-62.5 150.5-151 62.5-151-62.5-62.5-150.5 62.5-150.5 151-62.5zm0 384q70.5 0 120.5-50t50-121-50-121-120.5-50-120.5 50-50 121 50 121 120.5 50zm42.5-75q11 0 11 10.5t-11 10.5-11-10.5 11-10.5zm0-75q9 0 15 6.5t6 15-6 15-15 6.5-15-6.5-6-15 6-15 15-6.5z"/></svg>