<svg xmlns="http://www.w3.org/2000/svg" viewBox="0 0 423 512"><path d="M212.5 39q18.5 0 31.5 13.5t13 31.5-13 31.5-31.5 13.5-31.5-13.5-13-31.5 13-31.5 31.5-13.5zm124.5 47q22 0 37.5 16t15.5 37.5-15.5 37.5-37.5 16-38-16-16-37.5 16-37.5 38-16zm-245.5 10q16.5 0 28 12t11.5 28.5-11.5 28.5-28 12-28.5-12-12-28.5 12-28.5 28.5-12zm-57.5 134q14 0 24 10t10 24-10 24-24 10-24-10-10-24 10-24 24-10zm355 0q14 0 24 10t10 24-10 24-24 10-24-10-10-24 10-24 24-10zm-304 127q14 0 24 10t10 24-10 24-24 10-24-10-10-24 10-24 24-10zm255 0q14 0 24 10t10 24-10 24-24 10-24-10-10-24 10-24 24-10zm-128 47q14 0 24.5 10.5t10.5 24.5-10.5 24-24.5 10-24-10-10-24 10-24.5 24-10.5z"/></svg>