<svg xmlns="http://www.w3.org/2000/svg" viewBox="0 0 341 512"><path d="M128 256q18 0 30.5 12.5t12.5 30-12.5 30-30.5 12.5-30.5-12.5-12.5-30 12.5-30 30.5-12.5zm-85.5-85q17.5 0 30 12.5t12.5 30-12.5 30-30 12.5-30-12.5-12.5-30 12.5-30 30-12.5zm0 170q17.5 0 30 12.5t12.5 30.5-12.5 30.5-30 12.5-30-12.5-12.5-30.5 12.5-30.5 30-12.5zm256-170q-17.5 0-30-12.5t-12.5-30.5 12.5-30.5 30-12.5 30 12.5 12.5 30.5-12.5 30.5-30 12.5zm-85 170q17.5 0 30 12.5t12.5 30.5-12.5 30.5-30 12.5-30-12.5-12.5-30.5 12.5-30.5 30-12.5zm85-85q17.5 0 30 12.5t12.5 30-12.5 30-30 12.5-30-12.5-12.5-30 12.5-30 30-12.5zm-85-85q17.5 0 30 12.5t12.5 30-12.5 30-30 12.5-30-12.5-12.5-30 12.5-30 30-12.5zm-85.5-86q18 0 30.5 12.5t12.5 30.5-12.5 30.5-30.5 12.5-30.5-12.5-12.5-30.5 12.5-30.5 30.5-12.5z"/></svg>