<svg xmlns="http://www.w3.org/2000/svg" viewBox="0 0 439 512"><path d="M355 185q0-23-16.5-39t-39-16-39 16-16.5 39 16.5 39 39 16 39-16 16.5-39zm-174 168q0 24-17 40t-40 16q-16 0-29.5-8t-20.5-22q15 6 28 12 17 6 34-1t25-25q6-17-1-34t-25-24l-23-9q6-2 12-2 23 0 40 16.5t17 40.5zm258-234v274q0 34-24 58t-58 24h-275q-34 0-58-24t-24-58v-44l49 20q6 26 27 43.5t48 17.5q30 0 52-20t25-50l98-72q43 0 73-30t30-73q0-42-30-72.5t-73-30.5q-42 0-72 30t-31 72l-64 92h-8q-21 0-39 11l-85-34v-134q0-34 24-58t58-24h275q34 0 58 24t24 58zm-71 66q0 29-20 49t-48.5 20-49-20-20.5-48.5 20.5-49 48.5-20.5q29 0 49 20.5t20 48.5z"/></svg>