<svg xmlns="http://www.w3.org/2000/svg" viewBox="0 0 427 512"><path d="M427 253q0 28-27 39 2 9 2 19 0 51-55.5 87.5t-134 36.5-134-36.5-55.5-87.5q0-10 2-20-25-11-25-38 0-18 12.5-30.5t29.5-12.5q19 0 32 15 52-36 129-39l35-104q3-7 10-5l83 20q1 0 3 1 8-20 30-20 13 0 23 10t10 23.5-10 23.5-23 10q-14 0-23.5-9.5t-9.5-23.5q-2 1-3 0l-77-18-31 92q79 2 132 40 13-16 33-16 17 0 29.5 12.5t12.5 30.5zm-311 33.5q0 12.5 9 21.5t21.5 9 21.5-9 9-21.5-9-22-21.5-9.5-21.5 9.5-9 22zm166 84.5q4-3 .5-6.5t-7.5-.5q-18 19-62 19t-62-19q-3-3-6.5.5t-.5 6.5q21 22 70 22 47 0 68-22zm-1.5-54q12.5 0 21.5-9t9-21.5-9-22-21.5-9.5-22 9.5-9.5 22 9.5 21.5 22 9z"/></svg>