<svg xmlns="http://www.w3.org/2000/svg" viewBox="0 0 427 512"><path d="M281 311q-12 13-12 14-14 13-21 17-26 19-59 12-30-6-45-36-1-2-2-3-8 12-8 13-21 28-57 29-23 1-40-6-36-16-37-56h40l1 4q5 20 21 24 21 5 35-9 9-10 10.5-25t-6.5-26q-8-12-23-14.5t-26 6.5q-4 3-6 5-3 5-11 5h-29q9-53 20-110h111v33h-79q-3 0-4 3-1 4-7 39v3q21-19 52-14 27 5 42 34 1-1 1-3 2-2 2-3 21-43 69-36 26 3 46 22 1 1 23 24l2-2q22-23 24-25 17-16 38-19 23-3 43 5.5t30 30.5q16 38-2 74-16 33-55 35-29 1-51-17-3-2-25-22 0-1-5-6zm-76 5q12 0 24-7 8-4 28-23 1-2 0-4-2-1-9.5-8t-11.5-11q-9-8-21-12-14-4-25 2t-15 20q-1 4-1 8-1 16 8 25.5t23 9.5zm99-32q22 20 24 21 13 12 30 11 25 0 30-24 1-7 0-15-2-13-11.5-21t-22.5-6q-15 1-28 13-1 1-22 21z"/></svg>