<svg xmlns="http://www.w3.org/2000/svg" viewBox="0 0 427 512"><path d="M163 163l264 264v21h-64l-150-149-50 50q8 17 8 35 0 35-25 60t-60.5 25-60.5-25-25-60 25-60 60-25q19 0 35 7l51-50-51-50q-16 7-35 7-35 0-60-25t-25-60 25-60 60.5-25 60.5 25 25 60q0 18-8 35zm-77.5 8q17.5 0 30-12.5t12.5-30.5-12.5-30.5-30-12.5-30 12.5-12.5 30.5 12.5 30.5 30 12.5zm0 256q17.5 0 30-12.5t12.5-30.5-12.5-30.5-30-12.5-30 12.5-12.5 30.5 12.5 30.5 30 12.5zm128-160q10.5 0 10.5-11t-10.5-11-10.5 11 10.5 11zm149.5-203h64v21l-150 150-42-43z"/></svg>