<svg xmlns="http://www.w3.org/2000/svg" viewBox="0 0 341 512"><path d="M239 325q0 20-8 30t-23.5 10-23.5-10-8-29v-17q0-20 8-30t23.5-10 23.5 10 8 29v17zm-18-19q0-11-3.5-16.5t-10-5.5-9.5 5-3 16v23q0 11 3 16.5t10 5.5 10-5 3-16v-23zm-101 3h10q7 0 10-3.5t3-9.5-3-9-9-3-9.5 3-3.5 8h-18q0-8 4-13.5t11-9 15-3.5q15 0 23.5 7t8.5 20q0 6-4 11.5t-10 8.5q8 3 11.5 8.5t3.5 13.5q0 12-9 19.5t-24 7.5q-14 0-23-7t-9-20h19q0 6 4 9t10 3 10-3.5 4-8.5q0-14-16-14h-9v-15zm51-181q70 0 120 50t50 120.5-50 120.5-120.5 50-120.5-50-50-120h43q0 52 37.5 90t90 38 90.5-38 38-90.5-38-90-90-37.5v85l-107-107 107-106v85z"/></svg>