<svg xmlns="http://www.w3.org/2000/svg" viewBox="0 0 341 512"><path d="M0 277.5q0-70.5 50-120.5t121-50v-86l106 107-106 107v-86q-53 0-90.5 38t-37.5 90.5 37.5 90 90 37.5 90.5-37.5 38-90.5h42q0 71-50 121t-120.5 50-120.5-50-50-120.5zm145 63.5h-17v-70l-21 6v-15l38-12h2v91h-2zm94-38q0 13-2 17l-7 13q-6 6-10 6-2 0-6.5 1t-6.5 1q-9 0-13-2-2-1-5-3t-6-3q-2-1-6-13-2-6-2-17v-15q0-13 2-17l6-13q7-6 11-6 2 0 6.5-1t6.5-1q8 0 13 2 2 1 5 3t5 3q3 1 7 13 2 6 2 17v15zm-17-17v-11q-2-4-2-6l-5-4q-2-3-6-3t-6 3l-5 4q-2 4-2 6v43q2 4 2 6t2 3 3 2q2 2 6 2t6-2l5-5q2-4 2-6v-32z"/></svg>