<svg xmlns="http://www.w3.org/2000/svg" viewBox="0 0 484 512"><path d="M475 272q9 10 9 23t-9 23l-136 135q-9 10-22.5 10t-22.5-10l-257-256q-9-9-9-22.5t9-22.5l136-136q9-9 22.5-9t22.5 9l53 52-31 30-44-44-121 120 241 242 121-121-47-47 30-30zm-316 165l29-28 81 81-14 1q-100 0-173.5-68t-81.5-167h32q6 60 40 108t87 73zm161-245q-9 0-15-6.5t-6-14.5v-86q0-8 6-14.5t15-6.5v-11q0-22 15.5-37.5t37.5-15.5 38 15.5 16 37.5v11q8 0 14.5 6.5t6.5 14.5v86q0 8-6.5 14.5t-14.5 6.5h-107zm17-139v11h73v-11q0-15-11-25.5t-26-10.5-25.5 10.5-10.5 25.5z"/></svg>