<svg xmlns="http://www.w3.org/2000/svg" viewBox="0 0 384 512"><path d="M85 107v-43h43v43h-43zm0 170v-42h43v42h-43zm0 171v-43h43v43h-43zm86-85v-43h42v43h-42zm0 85v-43h42v43h-42zm-171 0v-43h43v43h-43zm0-85v-43h43v43h-43zm0-86v-42h43v42h-43zm0-85v-43h43v43h-43zm0-85v-43h43v43h-43zm171 170v-42h42v42h-42zm170 86v-43h43v43h-43zm0-86v-42h43v42h-43zm0 171v-43h43v43h-43zm0-256v-43h43v43h-43zm-170 0v-43h42v43h-42zm170-128h43v43h-43v-43zm-170 43v-43h42v43h-42zm85 341v-43h43v43h-43zm0-171v-42h43v42h-43zm0-170v-43h43v43h-43z"/></svg>