<svg xmlns="http://www.w3.org/2000/svg" viewBox="0 0 366 512"><path d="M249 248h50q3-10-8-21-12-12-27-3.5t-15 24.5zm83-148q11 14 17.5 34.5t8 32 4.5 38.5q4 39 3.5 88.5t-10.5 87.5q-9 61-49 80.5t-95 4.5q-22-6-32-27t-7-44q4-21 24-31.5t43-10.5v21q2 7-1 9.5t-8.5 2-11.5.5q-8 5-9 16.5t8.5 21 27.5 9.5q33-1 40-12t5-48q2-19-14-32t-36-14q-37 3-65-43-1 2-1 10.5v31.5q-1 15-15 23.5t-31 11.5q-60 5-84-19-34-36-43-120-7-48 22-69h81q4-2 10.5-9.5t7.5-8.5v-43q1-4 .5-14.5t1-17 6.5-11.5q22-11 47-4t38 28h55q43 6 62 27zm-245 35h-69l86-88v70z"/></svg>