<svg xmlns="http://www.w3.org/2000/svg" viewBox="0 0 427 512"><path d="M384 128q18 0 30.5 12.5t12.5 30.5v234q0 18-12.5 30.5t-30.5 12.5h-341q-18 0-30.5-12.5t-12.5-30.5v-234q0-18 12.5-30.5t30.5-12.5h46q-4-11-4-21 0-27 19-45.5t45-18.5q34 0 54 28l10 15 11-15q19-28 53-28 27 0 45.5 18.5t18.5 45.5q0 10-4 21h47zm-106.5-43q-8.5 0-15 6.5t-6.5 15 6.5 15 15 6.5 15-6.5 6.5-15-6.5-15-15-6.5zm-128 0q-8.5 0-15 6.5t-6.5 15 6.5 15 15 6.5 15-6.5 6.5-15-6.5-15-15-6.5zm234.5 320v-42h-341v42h341zm0-106v-128h-108l44 60-35 25-50-69-22-29-21 29-51 69-34-25 44-60h-108v128h341z"/></svg>