<svg xmlns="http://www.w3.org/2000/svg" viewBox="0 0 385 512"><path d="M189 267l23 19q4 4 2 6l-21 37q-2 2-7 2l-27-11q-13 9-19 11l-5 27q-4 5-6 5h-43q-2 0-3.5-1.5t-.5-3.5l-4-27q-7-2-20-11l-29 9q-3 2-7-3l-21-36q0-4 2-8l23-17v-22l-23-17q-4-4-2-6l21-37q2-2 7-2l27 11q13-9 20-11l4-27q4-5 6-5h43q6 0 6 5l5 27q6 2 19 11l27-9q3-2 7 3l21 36q0 4-2 6l-23 17v22zm-81.5 32q17.5 0 30-12.5t12.5-30.5-12.5-30.5-30-12.5-30 12.5-12.5 30.5 12.5 30.5 30 12.5zm234.5-278q18 0 30.5 12.5t12.5 30.5v384q0 18-12.5 30.5t-30.5 12.5h-213q-18 0-30.5-12.5t-12.5-30.5v-64h43v43h213v-342h-213v43h-43v-64q0-18 12.5-30.5t30.5-12.5h213z"/></svg>