<svg xmlns="http://www.w3.org/2000/svg" viewBox="0 0 469 512"><path d="M149 245.5q0 13.5-9 22.5t-22.5 9-23-9-9.5-22.5 9.5-23 23-9.5 22.5 9.5 9 23zm150-107q0 13.5-9.5 23t-22.5 9.5h-64q-14 0-23-9.5t-9-23 9-22.5 23-9h64q13 0 22.5 9t9.5 22.5zm-139 181.5q13 0 22.5 9.5t9.5 22.5-9.5 22.5-22.5 9.5-22.5-9.5-9.5-22.5 9.5-22.5 22.5-9.5zm75-299q97 0 165.5 69t68.5 166-68.5 166-165.5 69-166-69-69-166 69-166 166-69zm-.5 427q79.5 0 136-56.5t56.5-135.5-56.5-135.5-136-56.5-135.5 56.5-56 135.5 56 135.5 135.5 56.5zm117.5-235q13 0 22.5 9.5t9.5 23-9.5 22.5-22.5 9-22.5-9-9.5-22.5 9.5-23 22.5-9.5zm-42.5 107q13.5 0 22.5 9.5t9 22.5-9 22.5-22.5 9.5-23-9.5-9.5-22.5 9.5-22.5 23-9.5z"/></svg>