<svg xmlns="http://www.w3.org/2000/svg" viewBox="0 0 427 512"><path d="M332 304l-34-35q1-7 1-13 0-35-25-60t-61-25q-4 0-13 1l-34-35q23-9 47-9 53 0 90.5 37.5t37.5 90.5q0 25-9 48zm-119-219q-42 0-80 20l-31-31q52-31 111-31 89 0 151.5 62.5t62.5 150.5q0 60-32 111l-31-31q20-38 20-80 0-71-50-121t-121-50zm-186-32l21 22 357 357-27 27-160-161-5 1q-17 0-29.5-12.5t-12.5-30.5v-4l-34-34q-9 19-9 38 0 49 43 74l-22 37q-29-17-46.5-46.5t-17.5-64.5q0-38 21-69l-31-31q-32 44-32 100 0 47 23 86t62 62l-22 37q-48-29-77-78t-29-107q0-73 45-131l-45-45z"/></svg>