<svg xmlns="http://www.w3.org/2000/svg" viewBox="0 0 384 512"><path d="M42.5 373q-13.5 0-22.5-9t-9-22.5 9-23 22.5-9.5 23 9.5 9.5 23-9.5 22.5-23 9zm85.5-96q-9 0-15-6t-6-15 6-15 15-6 15 6 6 15-6 15-15 6zm0-85q-9 0-15-6.5t-6-15 6-15 15-6.5 15 6.5 6 15-6 15-15 6.5zm-128 256v-43h384v43h-384zm42.5-245q-13.5 0-22.5-9.5t-9-23 9-22.5 22.5-9 23 9 9.5 22.5-9.5 23-23 9.5zm0 85q-13.5 0-22.5-9.5t-9-22.5 9-22.5 22.5-9.5 23 9.5 9.5 22.5-9.5 22.5-23 9.5zm85.5 75q-9 0-15-6.5t-6-15 6-15 15-6.5 15 6.5 6 15-6 15-15 6.5zm170.5-11q-10.5 0-10.5-10.5t10.5-10.5 10.5 10.5-10.5 10.5zm-298.5-288h384v43h-384v-43zm298.5 117q-10.5 0-10.5-10.5t10.5-10.5 10.5 10.5-10.5 10.5zm0 86q-10.5 0-10.5-11t10.5-11 10.5 11-10.5 11zm-85-75q-8.5 0-15-6.5t-6.5-15 6.5-15 15-6.5 15 6.5 6.5 15-6.5 15-15 6.5zm0 85q-8.5 0-15-6t-6.5-15 6.5-15 15-6 15 6 6.5 15-6.5 15-15 6zm0 86q-8.5 0-15-6.5t-6.5-15 6.5-15 15-6.5 15 6.5 6.5 15-6.5 15-15 6.5z"/></svg>