<svg xmlns="http://www.w3.org/2000/svg" viewBox="0 0 341 512"><path d="M170.5 405q17.5 0 30 12.5t12.5 30.5-12.5 30.5-30 12.5-30-12.5-12.5-30.5 12.5-30.5 30-12.5zm-128-384q17.5 0 30 12.5t12.5 30.5-12.5 30.5-30 12.5-30-12.5-12.5-30.5 12.5-30.5 30-12.5zm0 128q17.5 0 30 12.5t12.5 30.5-12.5 30.5-30 12.5-30-12.5-12.5-30.5 12.5-30.5 30-12.5zm0 128q17.5 0 30 12.5t12.5 30.5-12.5 30.5-30 12.5-30-12.5-12.5-30.5 12.5-30.5 30-12.5zm256-170q-17.5 0-30-12.5t-12.5-30.5 12.5-30.5 30-12.5 30 12.5 12.5 30.5-12.5 30.5-30 12.5zm-128 170q17.5 0 30 12.5t12.5 30.5-12.5 30.5-30 12.5-30-12.5-12.5-30.5 12.5-30.5 30-12.5zm128 0q17.5 0 30 12.5t12.5 30.5-12.5 30.5-30 12.5-30-12.5-12.5-30.5 12.5-30.5 30-12.5zm0-128q17.5 0 30 12.5t12.5 30.5-12.5 30.5-30 12.5-30-12.5-12.5-30.5 12.5-30.5 30-12.5zm-128 0q17.5 0 30 12.5t12.5 30.5-12.5 30.5-30 12.5-30-12.5-12.5-30.5 12.5-30.5 30-12.5zm0-128q17.5 0 30 12.5t12.5 30.5-12.5 30.5-30 12.5-30-12.5-12.5-30.5 12.5-30.5 30-12.5z"/></svg>