<svg xmlns="http://www.w3.org/2000/svg" viewBox="0 0 427 512"><path d="M384 167h-107v-26h107v26zm-176 100.5q12 17.5 12 42.5 0 20-8 35-7 14-21 23-12 9-30 14-14 4-34 4h-127v-266h124q12 0 34 5 13 3 26 12 11 7 18 20 6 13 6 31 0 20-9.5 33.5t-26.5 21.5q24 7 36 24.5zm-153-40.5h61q17 0 26-6 10-7 10-23 0-9-3.5-15t-9.5-9q-6-4-12-5-9-2-15-2h-57v60zm107 80q0-20-11-29-11-8-30-8h-66v73h64q7 0 17-2 8-2 13.5-5.5t9.5-11.5q3-6 3-17zm264-3h-137q0 24 13 37 12 11 34 11 15 0 27-8 12-9 14-18h46q-10 35-34 50-24 16-55 16-22 0-40-7t-31-21q-13-13-19-32-7-18-7-40t7-40.5 20-32.5q13-13 30-21 18-8 40-8 24 0 42 9.5t30 25.5q11 15 17 37 5 21 3 42zm-52-34q-2-18-12-30-9-10-29-10-13 0-21 4.5t-13.5 10.5-6.5 13q-3 7-3 12h85z"/></svg>