<svg xmlns="http://www.w3.org/2000/svg" viewBox="0 0 384 512"><path d="M192 64q80 0 136 50t56 121q0 44-31.5 75t-75.5 31h-37q-14 0-23 9.5t-9 22.5q0 12 8 21 8 10 8 22 0 13-9.5 22.5t-22.5 9.5q-80 0-136-56t-56-136 56-136 136-56zm-117.5 192q13.5 0 23-9.5t9.5-22.5-9.5-22.5-23-9.5-22.5 9.5-9 22.5 9 22.5 22.5 9.5zm64-85q13.5 0 23-9.5t9.5-23-9.5-22.5-23-9-22.5 9-9 22.5 9 23 22.5 9.5zm107 0q13.5 0 22.5-9.5t9-23-9-22.5-22.5-9-23 9-9.5 22.5 9.5 23 23 9.5zm64 85q13.5 0 22.5-9.5t9-22.5-9-22.5-22.5-9.5-23 9.5-9.5 22.5 9.5 22.5 23 9.5z"/></svg>