<svg xmlns="http://www.w3.org/2000/svg" viewBox="0 0 427 512"><path d="M222 161q114 108 165 114 1-11 1-19 0-25-7-50-4 9-11 10t-15.5-5.5-15.5-14.5-14.5-18.5-10-15-3.5-6.5q-47-66-163-62-32 13-56 36 65-30 130 31zm143 182q11-20 16-39-33-3-85.5-29.5t-87.5-51.5l-35-25q-74-58-127 9-8 24-8 49 0 38 16 73 9-26 25-26 15 0 40.5 13.5t41.5 18.5q10 3 31 10l31.5 10.5 26.5 6.5 30 3q12 0 22-1.5t20-4.5 15.5-4.5 15.5-6 12-5.5zm-152 88q76 0 128-56-45 13-83.5 13t-62.5-7l-25-8q-26-8-31 6t7 38q32 14 67 14zm0-388q88 0 151 62.5t63 150.5-62.5 150.5-151 62.5-151-62.5-62.5-150.5 62.5-150.5 150.5-62.5z"/></svg>