<svg xmlns="http://www.w3.org/2000/svg" viewBox="0 0 427 512"><path d="M364.5 105q62.5 62 62.5 149.5t-62.5 149.5-150.5 62q-54 0-101-26l-113 29 30-109q-28-49-28-106 0-87 62-149t150-62 150.5 62zm-150.5 325q73 0 125-51.5t52-124.5-52-124.5-125-51.5-124.5 51.5-51.5 124.5q0 51 27 94l4 6-18 65 67-17 6 3q42 25 90 25zm97-132q9 5 10 7 4 6-3 25-3 8-15 15.5t-21 9.5q-18 2-33-2-17-6-30-11-8-4-15.5-8.5t-14.5-9-13-9.5-11.5-10-10.5-10.5-8.5-9.5-7-8.5-5.5-7-3.5-5l-1.5-2.5q-22-29-22-55 0-24 19-44 6-7 14-7 6 0 10 1 8 0 12 9 2 3 6 13l7 17.5 3 8.5q3 5 1 9-3 7-5 9l-3 3-3 3.5-2 2.5q-6 6-3 11 13 22 30 37 13 11 43 26 7 3 11-1 12-15 17-21 4-6 12-3 6 3 36 17z"/></svg>