<svg xmlns="http://www.w3.org/2000/svg" viewBox="0 0 341 512"><path d="M0 277.5q0-70.5 50-120.5t121-50v-86l106 107-106 107v-86q-53 0-90.5 38t-37.5 90.5 37.5 90 90 37.5 90.5-37.5 38-90.5h42q0 71-50 121t-120.5 50-120.5-50-50-120.5zm143 19.5l4-47h51v15h-36l-2 19q2 0 2-2 0-1 1-1t1-2h9q8 0 10 3 2 1 5 3t4 3q2 2 6 11 3 4 3 12.5t-3 10.5q0 1-2 4.5t-4 6.5q-2 2-11 6-4 2-12.5 2t-10.5-2q-1-1-5-2t-6-2q-3-1-6-9-2-4-2-10h17q0 4 4 8 2 2 9 2 4 0 6-2l4-4q2-4 2-6v-13l-2-4-4-5q-4-2-6-2h-5q-2 0-4 2-1 1-1.5 1t-.5 1l-2 3h-13z"/></svg>