<svg xmlns="http://www.w3.org/2000/svg" viewBox="0 0 469 512"><path d="M43 107v341h341v43h-341q-18 0-30.5-12.5t-12.5-30.5v-341h43zm384-86q17 0 29.5 12.5t12.5 30.5v299q0 17-12.5 29.5t-29.5 12.5h-299q-18 0-30.5-12.5t-12.5-29.5v-299q0-18 12.5-30.5t30.5-12.5h299zm0 342v-299h-299v299h299zm-171-43q-18 0-30.5-12.5t-12.5-30.5v-32q0-13 9.5-22.5t22.5-9.5q-13 0-22.5-9t-9.5-23v-32q0-17 12.5-29.5t30.5-12.5h43q17 0 29.5 12.5t12.5 29.5v32q0 14-9 23t-23 9q14 0 23 9.5t9 22.5v32q0 18-12.5 30.5t-29.5 12.5h-43zm0-171v43h43v-43h-43zm0 86v42h43v-42h-43z"/></svg>