<svg xmlns="http://www.w3.org/2000/svg" viewBox="0 0 427 512"><path d="M366 160q25 0 43 18t18 43v81q0 25-18 43t-43 18h-153q0 6 5 13t10 7h92v36q0 25-18 43t-43 18h-91q-26 0-43.5-18t-17.5-43v-80q0-25 17.5-43t43.5-18h112q25 0 42.5-18t17.5-43v-57h26zm-92 252q-15 0-15 19 0 15 15 15 7 0 11-4.5t4-10.5q0-19-15-19zm-213-39q-25 0-43-17.5t-18-43.5v-80q0-26 18-43.5t43-17.5h152q0-7-4.5-14t-10.5-7h-91v-36q0-25 17.5-43t43.5-18h91q25 0 43 18t18 43v80q0 26-18 43.5t-43 17.5h-112q-25 0-43 18t-18 43v57h-25zm91-251q16 0 16-19 0-15-16-15-15 0-15 15 0 19 15 19z"/></svg>