<svg xmlns="http://www.w3.org/2000/svg" viewBox="0 0 428 512"><path d="M336 256l86 85q6 7 6 15.5t-6 14.5l-93 93q-6 6-15 6t-15-6l-85-85-85 85q-6 6-15 6t-15-6l-93-93q-6-6-6-14.5t6-15.5l85-85-85-84q-6-7-6-15.5t6-15.5l93-92q6-6 14.5-6t15.5 6l85 85 85-85q6-6 15-6t15 6l92 92q7 7 7 15.5t-7 15.5zm-122-64q-9 0-15 6.5t-6 15 6 15 15 6.5 15.5-6.5 6.5-15-6.5-15-15.5-6.5zm-100 42l77-78-77-77-78 78zm57.5 43q8.5 0 15-6t6.5-15-6.5-15-15-6-15 6-6.5 15 6.5 15 15 6zm42.5 43q9 0 15.5-6.5t6.5-15-6.5-15-15.5-6.5-15 6.5-6 15 6 15 15 6.5zm43-85q-9 0-15 6t-6 15 6 15 15 6 15-6 6-15-6-15-15-6zm57 199l77-78-77-77-78 78z"/></svg>