<svg xmlns="http://www.w3.org/2000/svg" viewBox="0 0 341 512"><path d="M341 213q0 30-18 52.5t-46 30.5v24h64q0 29-18 52t-46 30v25q0 8-6 14.5t-15 6.5h-171q-8 0-14.5-6.5t-6.5-14.5v-25q-28-7-46-30t-18-52h64v-24q-28-8-46-30.5t-18-52.5h64v-24q-28-7-46-30t-18-52h64v-22q0-8 6.5-14.5t14.5-6.5h171q9 0 15 6.5t6 14.5v22h64q0 29-18 52t-46 30v24h64zm-170.5 192q17.5 0 30-12.5t12.5-30-12.5-30-30-12.5-30 12.5-12.5 30 12.5 30 30 12.5zm0-106q17.5 0 30-12.5t12.5-30.5-12.5-30.5-30-12.5-30 12.5-12.5 30.5 12.5 30.5 30 12.5zm0-107q17.5 0 30-12.5t12.5-30-12.5-30-30-12.5-30 12.5-12.5 30 12.5 30 30 12.5z"/></svg>