<?xml version="1.0" encoding="UTF-8" standalone="no"?>
<svg
   xmlns:dc="http://purl.org/dc/elements/1.1/"
   xmlns:cc="http://creativecommons.org/ns#"
   xmlns:rdf="http://www.w3.org/1999/02/22-rdf-syntax-ns#"
   xmlns:svg="http://www.w3.org/2000/svg"
   xmlns="http://www.w3.org/2000/svg"
   xmlns:sodipodi="http://sodipodi.sourceforge.net/DTD/sodipodi-0.dtd"
   xmlns:inkscape="http://www.inkscape.org/namespaces/inkscape"
   viewBox="0 0 1536 1792"
   id="svg4643"
   version="1.1"
   inkscape:version="0.91 r13725"
   sodipodi:docname="monk_export.svg">
  <metadata
     id="metadata4651">
    <rdf:RDF>
      <cc:Work
         rdf:about="">
        <dc:format>image/svg+xml</dc:format>
        <dc:type
           rdf:resource="http://purl.org/dc/dcmitype/StillImage" />
        <dc:title />
      </cc:Work>
    </rdf:RDF>
  </metadata>
  <defs
     id="defs4649">
    <marker
       inkscape:stockid="TriangleOutS"
       orient="auto"
       refY="0.0"
       refX="0.0"
       id="TriangleOutS"
       style="overflow:visible"
       inkscape:isstock="true">
      <path
         id="path4807"
         d="M 5.77,0.0 L -2.88,5.0 L -2.88,-5.0 L 5.77,0.0 z "
         style="fill-rule:evenodd;stroke:#000000;stroke-width:1pt;stroke-opacity:1;fill:#000000;fill-opacity:1"
         transform="scale(0.2)" />
    </marker>
    <marker
       inkscape:stockid="TriangleOutL"
       orient="auto"
       refY="0.0"
       refX="0.0"
       id="TriangleOutL"
       style="overflow:visible"
       inkscape:isstock="true">
      <path
         id="path4801"
         d="M 5.77,0.0 L -2.88,5.0 L -2.88,-5.0 L 5.77,0.0 z "
         style="fill-rule:evenodd;stroke:#000000;stroke-width:1pt;stroke-opacity:1;fill:#000000;fill-opacity:1"
         transform="scale(0.8)" />
    </marker>
    <marker
       inkscape:stockid="Arrow2Lend"
       orient="auto"
       refY="0.0"
       refX="0.0"
       id="Arrow2Lend"
       style="overflow:visible;"
       inkscape:isstock="true">
      <path
         id="path4680"
         style="fill-rule:evenodd;stroke-width:0.625;stroke-linejoin:round;stroke:#000000;stroke-opacity:1;fill:#000000;fill-opacity:1"
         d="M 8.7185878,4.0337352 L -2.2072895,0.016013256 L 8.7185884,-4.0017078 C 6.9730900,-1.6296469 6.9831476,1.6157441 8.7185878,4.0337352 z "
         transform="scale(1.1) rotate(180) translate(1,0)" />
    </marker>
  </defs>
  <sodipodi:namedview
     pagecolor="#ffffff"
     bordercolor="#666666"
     borderopacity="1"
     objecttolerance="10"
     gridtolerance="10"
     guidetolerance="10"
     inkscape:pageopacity="0"
     inkscape:pageshadow="2"
     inkscape:window-width="1920"
     inkscape:window-height="1019"
     id="namedview4647"
     showgrid="false"
     inkscape:zoom="0.23493304"
     inkscape:cx="303.7485"
     inkscape:cy="786.63859"
     inkscape:window-x="1920"
     inkscape:window-y="24"
     inkscape:window-maximized="1"
     inkscape:current-layer="svg4643" />
  <path
     d="m 151.86719,93.644531 c -24.44972,0 -45.23285,8.356509 -62.347659,25.072269 -17.114806,16.71575 -25.671875,37.01487 -25.671875,60.89453 l 0,1432.77737 c 0,23.8796 8.557069,44.1787 25.671875,60.8945 17.114809,16.7157 37.897939,25.0723 62.347659,25.0723 l 1232.26561,0 c 24.4497,0 45.2329,-8.3566 62.3477,-25.0723 17.1148,-16.7158 25.6718,-37.0149 25.6718,-60.8945 l 0,-282.625 -430.3867,263.0527 0,-208.2168 -442.83201,0 0,-301.9629 442.83201,0 0,-208.21482 430.3867,273.05272 0,-480.71874 -498.77535,0 c -24.44972,0 -45.23089,-8.35847 -62.3457,-25.07422 -17.11481,-16.71575 -25.67187,-37.01292 -25.67187,-60.89258 l 0,-487.144529 z m 850.84961,35.818359 0,422.66992 432.7598,0 C 1285.607,392.566 1143.763,249.41005 1002.7168,129.46289 Z"
     id="path4645"
     inkscape:connector-curvature="0"
     sodipodi:nodetypes="ssssssssscccccccccssscscccc" />
</svg>
