<?xml version="1.0" encoding="UTF-8" standalone="no"?>
<svg
   xmlns:dc="http://purl.org/dc/elements/1.1/"
   xmlns:cc="http://creativecommons.org/ns#"
   xmlns:rdf="http://www.w3.org/1999/02/22-rdf-syntax-ns#"
   xmlns:svg="http://www.w3.org/2000/svg"
   xmlns="http://www.w3.org/2000/svg"
   xmlns:sodipodi="http://sodipodi.sourceforge.net/DTD/sodipodi-0.dtd"
   xmlns:inkscape="http://www.inkscape.org/namespaces/inkscape"
   viewBox="0 0 1536 1792"
   id="svg7875"
   version="1.1"
   inkscape:version="0.91 r13725"
   sodipodi:docname="endpoint.svg">
  <metadata
     id="metadata7883">
    <rdf:RDF>
      <cc:Work
         rdf:about="">
        <dc:format>image/svg+xml</dc:format>
        <dc:type
           rdf:resource="http://purl.org/dc/dcmitype/StillImage" />
      </cc:Work>
    </rdf:RDF>
  </metadata>
  <defs
     id="defs7881" />
  <sodipodi:namedview
     pagecolor="#ffffff"
     bordercolor="#666666"
     borderopacity="1"
     objecttolerance="10"
     gridtolerance="10"
     guidetolerance="10"
     inkscape:pageopacity="0"
     inkscape:pageshadow="2"
     inkscape:window-width="1920"
     inkscape:window-height="1019"
     id="namedview7879"
     showgrid="false"
     inkscape:zoom="0.34487239"
     inkscape:cx="919.78519"
     inkscape:cy="952.81554"
     inkscape:window-x="1920"
     inkscape:window-y="24"
     inkscape:window-maximized="1"
     inkscape:current-layer="svg7875" />
  <path
     style="color:#000000;font-style:normal;font-variant:normal;font-weight:normal;font-stretch:normal;font-size:medium;line-height:normal;font-family:sans-serif;text-indent:0;text-align:start;text-decoration:none;text-decoration-line:none;text-decoration-style:solid;text-decoration-color:#000000;letter-spacing:normal;word-spacing:normal;text-transform:none;direction:ltr;block-progression:tb;writing-mode:lr-tb;baseline-shift:baseline;text-anchor:start;white-space:normal;clip-rule:nonzero;display:inline;overflow:visible;visibility:visible;opacity:1;isolation:auto;mix-blend-mode:normal;color-interpolation:sRGB;color-interpolation-filters:linearRGB;solid-color:#000000;solid-opacity:1;fill:#000000;fill-opacity:1;fill-rule:nonzero;stroke:none;stroke-width:140;stroke-linecap:butt;stroke-linejoin:miter;stroke-miterlimit:4;stroke-dasharray:none;stroke-dashoffset:0;stroke-opacity:1;color-rendering:auto;image-rendering:auto;shape-rendering:auto;text-rendering:auto;enable-background:accumulate"
     d="M 770.47266 182.43359 A 30.344682 30.344682 0 0 0 740.58789 213.20312 L 740.58789 282.48047 C 574.59292 290.03047 416.88527 359.30223 298.87891 477.30859 C 180.87253 595.31497 111.60078 753.02261 104.05078 919.01758 L 34.773438 919.01758 A 30.344682 30.344682 0 1 0 34.773438 979.70117 L 104.05078 979.70117 C 111.60078 1145.6962 180.87253 1303.4037 298.87891 1421.4102 C 416.88527 1539.4165 574.59292 1608.6883 740.58789 1616.2383 L 740.58789 1685.5137 A 30.344682 30.344682 0 1 0 801.27148 1685.5137 L 801.27148 1616.2383 C 967.26645 1608.6883 1124.9741 1539.4165 1242.9805 1421.4102 C 1360.9868 1303.4037 1430.2586 1145.6962 1437.8086 979.70117 L 1507.084 979.70117 A 30.344682 30.344682 0 1 0 1507.084 919.01758 L 1437.8086 919.01758 C 1430.2586 753.02261 1360.9868 595.31497 1242.9805 477.30859 C 1124.9741 359.30223 967.26645 290.03046 801.27148 282.48047 L 801.27148 213.20312 A 30.344682 30.344682 0 0 0 770.47266 182.43359 z M 740.58789 422.66016 L 740.58789 524.44336 C 530.67859 539.44145 361.98828 708.74717 347.06836 919.01758 L 244.23047 919.01758 C 251.64537 790.14029 306.08977 668.08601 397.87305 576.30273 C 489.65631 484.51947 611.71061 430.07506 740.58789 422.66016 z M 801.27148 422.66016 C 930.14852 430.07505 1052.2011 484.51947 1143.9844 576.30273 C 1235.7676 668.08601 1290.2138 790.14029 1297.6289 919.01758 L 1194.7891 919.01758 C 1179.8693 708.74719 1011.1806 539.44148 801.27148 524.44336 L 801.27148 422.66016 z M 740.58789 664.94336 L 740.58789 782.54102 A 169.62535 169.62535 0 0 0 604.17773 919.01758 L 487.55664 919.01758 C 501.46613 784.60108 606.83853 678.95114 740.58789 664.94336 z M 801.27148 664.94336 C 935.02062 678.95115 1040.3915 784.60109 1054.3008 919.01758 L 937.74609 919.01758 A 169.62535 169.62535 0 0 0 801.27148 782.60742 L 801.27148 664.94336 z M 244.23047 979.70117 L 347.06836 979.70117 C 361.98829 1189.9716 530.6786 1359.2773 740.58789 1374.2754 L 740.58789 1476.0586 C 611.7106 1468.6434 489.65631 1414.1973 397.87305 1322.4141 C 306.08977 1230.6308 251.64537 1108.5782 244.23047 979.70117 z M 487.55664 979.70117 L 604.11133 979.70117 A 169.62535 169.62535 0 0 0 740.58789 1116.1113 L 740.58789 1233.7754 C 606.83854 1219.7676 501.46613 1114.1177 487.55664 979.70117 z M 937.68164 979.70117 L 1054.3008 979.70117 C 1040.3915 1114.1177 935.02061 1219.7676 801.27148 1233.7754 L 801.27148 1116.1758 A 169.62535 169.62535 0 0 0 937.68164 979.70117 z M 1194.7891 979.70117 L 1297.6289 979.70117 C 1290.2138 1108.5782 1235.7676 1230.6308 1143.9844 1322.4141 C 1052.2011 1414.1973 930.14852 1468.6434 801.27148 1476.0586 L 801.27148 1374.2754 C 1011.1806 1359.2773 1179.8693 1189.9716 1194.7891 979.70117 z "
     id="path7885" />
</svg>
