<?xml version="1.0" encoding="UTF-8" standalone="no"?>
<svg
   xmlns:dc="http://purl.org/dc/elements/1.1/"
   xmlns:cc="http://creativecommons.org/ns#"
   xmlns:rdf="http://www.w3.org/1999/02/22-rdf-syntax-ns#"
   xmlns:svg="http://www.w3.org/2000/svg"
   xmlns="http://www.w3.org/2000/svg"
   xmlns:sodipodi="http://sodipodi.sourceforge.net/DTD/sodipodi-0.dtd"
   xmlns:inkscape="http://www.inkscape.org/namespaces/inkscape"
   viewBox="0 0 1792 1792"
   id="svg5035"
   version="1.1"
   inkscape:version="0.91 r13725"
   sodipodi:docname="backendsettings.svg">
  <metadata
     id="metadata5043">
    <rdf:RDF>
      <cc:Work
         rdf:about="">
        <dc:format>image/svg+xml</dc:format>
        <dc:type
           rdf:resource="http://purl.org/dc/dcmitype/StillImage" />
        <dc:title></dc:title>
      </cc:Work>
    </rdf:RDF>
  </metadata>
  <defs
     id="defs5041" />
  <sodipodi:namedview
     pagecolor="#ffffff"
     bordercolor="#666666"
     borderopacity="1"
     objecttolerance="10"
     gridtolerance="10"
     guidetolerance="10"
     inkscape:pageopacity="0"
     inkscape:pageshadow="2"
     inkscape:window-width="1920"
     inkscape:window-height="1019"
     id="namedview5039"
     showgrid="false"
     inkscape:zoom="0.34802912"
     inkscape:cx="486.59985"
     inkscape:cy="1393.1923"
     inkscape:window-x="1920"
     inkscape:window-y="24"
     inkscape:window-maximized="1"
     inkscape:current-layer="svg5035" />
  <path
     d="M 1249 0 C 1213.6667 0 1183.3333 12.333333 1158 37 L 758 438 L 608 288 L 448 448 C 339.33333 556.66667 277.16667 686.5 261.5 837.5 C 245.83333 988.5 279.33333 1125.6667 362 1249 L 0 1611 L 0 1792 L 181 1792 L 543 1430 C 656.89833 1506.3427 782.59593 1540.7497 920.08984 1533.2285 C 914.42206 1530.3039 908.00097 1526.2804 900.25 1519.6738 C 887.33746 1508.6678 866.30273 1483.4485 866.30273 1447.1934 L 866.30273 1307.1934 C 866.30273 1270.9379 887.33748 1245.7208 900.25 1234.7148 C 913.16252 1223.7089 922.42797 1219.8024 930.56641 1216.3613 C 946.84327 1209.4792 959.78096 1206.5424 975.2207 1203.3301 C 989.7148 1200.3145 1006.1817 1197.6064 1024.666 1195.0312 C 1020.231 1184.17 1016.1089 1173.7984 1012.6328 1164.3926 C 1002.9077 1138.0774 994.30273 1125.1268 994.30273 1086.1934 C 994.30273 1053.5278 1016.276 1020.7133 1034.3027 1007.1934 L 1048.0527 998.69531 C 1037.3076 1004.0681 1057.6466 993.24603 1078.1113 981.36328 C 1098.9393 969.26963 1118.7829 957.83406 1137.6504 947.05273 C 1147.3845 941.49037 1154.9857 937.22952 1161.4512 933.78125 C 1164.6839 932.05712 1167.4801 930.58439 1171.3574 928.75977 C 1173.2961 927.84745 1175.3671 926.85998 1179.3574 925.33984 C 1183.3478 923.81971 1182.1355 919.19336 1212.3027 919.19336 C 1257.2301 919.19336 1263.6486 933.70278 1272.1777 940.09961 C 1280.7068 946.49644 1286.1173 951.79397 1291.7852 957.52344 C 1303.1209 968.98237 1314.3464 982.04597 1327.9922 998.74414 C 1332.7499 1004.566 1335.9492 1008.7378 1340.1836 1013.9902 C 1360.1486 988.9957 1379.5456 966.67315 1398.6641 947.55469 L 1433.8418 925.8125 L 1439.8418 923.8125 L 1468.3027 919.19336 C 1468.5825 919.19336 1468.8113 919.20047 1469.0859 919.20117 L 1755 634 C 1779.6667 608.66667 1792 578.5 1792 543.5 C 1792 508.5 1779.6667 478.33333 1755 453 C 1730.3333 428.33333 1700.3333 416 1665 416 C 1629.6667 416 1599.3333 428.33333 1574 453 L 1173 853 L 939 619 L 1339 218 C 1363.6667 193.33333 1376 163.16667 1376 127.5 C 1376 91.833333 1363.6667 61.666667 1339 37 C 1314.3333 12.333333 1284.3333 0 1249 0 z "
     id="path5037" />
  <path
     d="m 1201.8555,985.07178 c -1.3333,0 -11.3333,5.3333 -30,16.00002 -18.6667,10.6666 -38.3333,22 -59,34 -20.6667,12 -32.3333,18.6666 -35,20 -2.6667,2 -4,4.3333 -4,7 0,16.6666 17,62.6666 51,138 -11.3333,15.3333 -21.3333,32.6666 -30,51.9999 -99.33326,10 -148.99996,20.3334 -148.99996,31 l 0,140 c 0,10.6667 49.6667,21 148.99996,31 8,18 18,35.3334 30,52 -34,75.3334 -51,121.3334 -51,138 0,2.6667 1.3333,5 4,7 81.3333,47.3334 122.6667,71 124,71 5.3333,0 20.6667,-15.6666 46,-47 25.3333,-31.3333 42.6667,-54 52,-68 13.3333,1.3334 23.3333,2 30,2 6.6667,0 16.6667,-0.6666 30,-2 9.3333,14 26.6667,36.6667 52,68 25.3334,31.3334 40.6667,47 46,47 1.3334,0 42.6667,-23.6666 124,-71 2.6667,-2 4,-4.3333 4,-7 0,-16.6666 -17,-62.6666 -51,-138 12,-16.6666 22,-34 30,-52 99.3334,-10 149,-20.3333 149,-31 l 0,-140 c 0,-10.6666 -49.6666,-21 -149,-31 -8.6666,-19.3333 -18.6666,-36.6666 -30,-51.9999 34,-75.3334 51,-121.3334 51,-138 0,-2.6667 -1.3333,-5 -4,-7 -80,-46.6667 -121.3333,-70.00002 -124,-70.00002 l -6,2 c -27.3333,27.33332 -57.9999,64.66662 -92,112.00002 -13.3333,-1.3334 -23.3333,-2 -30,-2 -6.6667,0 -16.6667,0.6666 -30,2 -9.3333,-14 -26.6667,-36.5 -52,-67.5 -25.3333,-31 -40.6667,-46.50002 -46,-46.50002 z m 128,239.99992 c 34.6667,0 64.6667,12.6667 90,38 25.3334,25.3334 38,55.3334 38,90 0,35.3334 -12.5,65.5 -37.5,90.5 -25,25 -55.1666,37.5 -90.5,37.5 -35.3333,0 -65.5,-12.5 -90.5,-37.5 -25,-25 -37.5,-55.1666 -37.5,-90.5 0,-34.6666 12.6667,-64.6666 38,-90 25.3333,-25.3333 55.3333,-38 90,-38 z"
     id="path5706-3"
     inkscape:connector-curvature="0"
     style="stroke:none;stroke-width:100;stroke-miterlimit:0;stroke-dasharray:none;stroke-opacity:1" />
</svg>
