<?xml version="1.0" encoding="UTF-8" standalone="no"?>
<svg
   xmlns:dc="http://purl.org/dc/elements/1.1/"
   xmlns:cc="http://creativecommons.org/ns#"
   xmlns:rdf="http://www.w3.org/1999/02/22-rdf-syntax-ns#"
   xmlns:svg="http://www.w3.org/2000/svg"
   xmlns="http://www.w3.org/2000/svg"
   xmlns:sodipodi="http://sodipodi.sourceforge.net/DTD/sodipodi-0.dtd"
   xmlns:inkscape="http://www.inkscape.org/namespaces/inkscape"
   viewBox="0 0 1792 1792"
   id="svg4185"
   version="1.1"
   inkscape:version="0.91 r13725"
   sodipodi:docname="monk_key.svg">
  <metadata
     id="metadata4193">
    <rdf:RDF>
      <cc:Work
         rdf:about="">
        <dc:format>image/svg+xml</dc:format>
        <dc:type
           rdf:resource="http://purl.org/dc/dcmitype/StillImage" />
        <dc:title />
      </cc:Work>
    </rdf:RDF>
  </metadata>
  <defs
     id="defs4191" />
  <sodipodi:namedview
     pagecolor="#ffffff"
     bordercolor="#666666"
     borderopacity="1"
     objecttolerance="10"
     gridtolerance="10"
     guidetolerance="10"
     inkscape:pageopacity="0"
     inkscape:pageshadow="2"
     inkscape:window-width="1920"
     inkscape:window-height="1011"
     id="namedview4189"
     showgrid="false"
     inkscape:zoom="0.93973216"
     inkscape:cx="1563.3551"
     inkscape:cy="442.08557"
     inkscape:window-x="0"
     inkscape:window-y="27"
     inkscape:window-maximized="1"
     inkscape:current-layer="svg4185" />
  <path
     d="M 832,512 C 838.7796,381.45771 693.28204,291.65381 569.38605,334.56434 405.29649,378.14654 180.75323,608.10595 192,768 185.67724,893.23755 331.41971,983.90772 444.2204,946.08372 577.75242,902.50451 662.93548,815.65576 751.20512,721.8252 795.63767,668.94851 830.92111,584.12126 832,512 Z m 857.3848,709.3207 c -40.1231,50.8136 -48.4854,58.1828 -117.5656,124.033 -41.1677,-34.7949 -81.1863,-73.9475 -135.4859,-127.2832 -15.2557,19.987 -72.6312,73.4942 -89.057,97.2058 75.9111,77.5252 155.2585,151.9954 228.9737,231.4737 -41.9877,43.3916 -82.5299,85.5728 -158.7058,158.7942 C 1203.5806,1491.5806 976.07284,1264.0729 762.10926,1050.1093 741.65857,1028.3464 727.46584,1022.3192 704.79775,1038.54 551.00177,1148.4357 345.53237,1197.8996 172.4707,1103.5527 32.714844,1026.8879 -21.20312,854.70574 5.9375,704.4375 50.981129,441.85397 263.1027,218.90755 517.33984,146.18359 c 153.66207,-43.41455 342.59304,-14.0543 438.99414,124.88086 114.47812,163.48377 71.48662,388.38004 -32.63086,545.73243 -32.75208,45.61242 -13.93019,64.3328 18.44084,93.34708 L 1248,1216 l 96,-96 c -42.9709,-49.7559 -48.547,-54.3716 -116.2496,-130.71976 56.9567,-53.63127 67.1214,-62.78372 126.9343,-113.08573 95.9105,102.6151 244.1273,250.25749 334.7001,345.12619 z"
     id="path4187"
     inkscape:connector-curvature="0"
     sodipodi:nodetypes="ccccccccccccccccccccccccc" />
</svg>
